<?xml version="1.0" encoding="utf-8"?>
<!-- Generator: Adobe Illustrator 15.1.0, SVG Export Plug-In . SVG Version: 6.00 Build 0)  -->
<!DOCTYPE svg PUBLIC "-//W3C//DTD SVG 1.1//EN" "http://www.w3.org/Graphics/SVG/1.1/DTD/svg11.dtd">
<svg version="1.1" id="Capa_1" xmlns="http://www.w3.org/2000/svg" xmlns:xlink="http://www.w3.org/1999/xlink" x="0px" y="0px"
	 width="130px" height="52px" viewBox="0 0 130 52" enable-background="new 0 0 130 52" xml:space="preserve">
<rect fill="#FF0000" width="130" height="52"/>
<path fill="#FFFFFF" d="M126.223,40.059v7.906H111.58V4h7.885v36.059H126.223z M63.658,25.559c-0.61,0.294-1.248,0.44-1.87,0.442
	v-14.14h0.04c0.622-0.005,5.264,0.184,5.264,6.993C67.092,22.413,65.512,24.658,63.658,25.559z M40.55,34.24l2.183-18.799
	l2.265,18.799H40.55z M110.205,12.025V4.007H87.879l-3.675,26.779l-3.63-26.78h-8.053l0.901,7.15
	c-0.928-1.832-4.224-7.15-11.48-7.15c-0.047-0.002-8.06,0-8.06,0l-0.031,39.032L47.984,4.007L37.439,4.002l-6.072,40.439
	l0.002-40.435H21.278L17.64,26.725L14.096,4.006H4v43.967h7.95V26.779l3.618,21.193h4.226l3.565-21.193v21.193h15.327l0.928-6.763
	h6.17l0.927,6.763l15.047,0.008h0.01v-0.008h0.02V33.702l1.845-0.271l3.817,14.551h7.784l-0.002-0.01h0.021l-5.011-17.049
	c2.538-1.88,5.405-6.644,4.643-11.203v-0.002C74.895,19.777,79.615,48,79.615,48l9.256-0.027l6.327-39.85v39.85h15.007v-7.908
	h-7.124v-10.08h7.124v-8.029h-7.124v-9.931L110.205,12.025L110.205,12.025z"/>
</svg>
